<mxfile host="65bd71144e">
    <diagram id="YY-Kx6DN27zFAO9Nn7ob" name="Page-1">
        <mxGraphModel dx="641" dy="486" grid="1" gridSize="10" guides="1" tooltips="1" connect="1" arrows="1" fold="1" page="1" pageScale="1" pageWidth="850" pageHeight="1100" background="#8A7A90" math="0" shadow="1">
            <root>
                <mxCell id="0"/>
                <mxCell id="1" parent="0"/>
                <mxCell id="11" value="" style="shape=stencil(lVrZchtHDPwavqLmPp4d5z9cZTlSRZFcsnL9fXrCmhWnd7dZfpNpgDsDNBoNLC/x04/HL98fLsH9eH97/f3h76ev74+X+MslhKeXx4e3p3f8dYmfL/HTt9e3h9/eXv98+Xr99/cvw3L89cfrX+Mb/rn6xWDFDa/g/r1+Us21/z/49Wr//PRyYx+6BU/2qQv7bGW1bxaTsPdW0mLfreRze1/N58Xee2viAT5YXS/ss2X1BGcxrg7NknBofCLcqYkQFYtltc/W/Ll9Nl8X++jMxXP7ZLGv9mnm5NA+Wif7brmq7/erfUoyZZkRlLpFAbnCCcvJnDh/sxxWew05JJhKoARLIqCAUF8zUIqlIByQ0BUS1ekj9VmEmwOyIu4cguUVpBV16WRd9vVIzVlShdlnlWwO0aK4dIyzSjaHMivj2KFaWQuhNWtFAM9bXzPdvXlxpFQmcDYHpFI9oVtfw9qTZRHWvKVpc8gSGsCmXzPdcUgRJWAzpp2DKE9gMzY+krrDwKbjSyfxhJrmiTeHaE5cGtisu8Q5QZHN78DXJiscO2Q+Ej7pAt6tck23rcoPHbqbHLFVXLcmWANQS+sTapE0g6g7ekKwJsKKvDripS47AxzqitaykfOZAxFZ8RYFWgf6V/DlalmQPS7d1m6CkiqiROHgV7SiaKvI9MAm9Z9iQYAP2CzU4MIknjNohDVKUUMDYC5rlMCFTsG7Tp676elSk0SWYXdEAyqO4D10jWKNxrJhtBhFAmWy0Oage9xogSu8h7BSvATWWC8dnOSlj3K5kXpRSbcyldHmUOQdhrJYj+STFId5F1Y4eAHvnFnu+SjrIXuWP3BQl0478EEQKa2BciHwQXJVJR0ah7WbF2Ad4OchJgt7fF1abwAGEEAC9BOR0szKsX1lxsgz7Wf2nihp5uTYvswBYatmK+q+O/sgJ4BxHqqDOZWd2VM/d5Lv9hLd6fgjX4XsFT2C2xJ/vxM9JPqpZD/slRbG0Ezqws8Entlntlf4gX2lEfKePQ3NSccnWIhkr6ga8clr/LPsyYg/jWxF1m/YOvZNPar6gvjr/P3i/MBnT3x+jedQKT6KpEd90Ugux4ox0lInm9PYmT03AW1fma+8Xuo0xoOTQ8ug40T2amYBHkij3a3fn7MvLFa83EAkx/USJd5S4vxmuYFIjaVNkeosB16hVNmBMya+RPZyw+R205DsjyVxvXcptKCbqH9BEUQlFj0PHtAcXZwIIyZnGLOLgDTUZV8lta+TVI8dOufMd7mGw3zod3JUsXRDU1+7DGhFTVtQ+VSWwJHCdesW6Ujdgpq2PE+MUUtqDLFlPVLUyz6MZ2E32twZYqkXJG9BYKnv5CjKVWnwDrZb0Y16lUfqHCUUbFdh7bzJwtTrRVi92wjuZrDOauztLBEwiyiOxK37eqaqRRfiWmhfsQH4dDlAKlwvaTCJ0zCEmlIvEzBY88uELFONCqJlWdOTBObkvNsQqsyBNhKt45JVkbia58LkZn+ntpx1g//mcHcopSUNwKLaz1gp8nymGy7gXHaPUInIkUsIDl613MZEg1s7odlSYmwgrmrHDhFAZInMqV1WzLyaAn0qGgCX8gYcdKx1Ks3urczUHDtEzgMArAgfQorIsjm5PfZl92KhyBpFI99vLeUCz9raIEqb095xPfA6G2pFBTXP/924eHvicda4YeU813nHF2agZjf7y6G9Y9Ib7UrU2q4zxC4x4Vg0xHjn+/tu0aeUVeAXFoiY0kmJKx+6ysvXfUSoUHpqeN81Z+/l8sR7HqaaXJ6MBR0tyef0eWzf+c1a0sufxH02ymVC2C2Lg3ydM5YVPGzeWVbQcBTkcA14UX8KUlfAvrK9UjoQmERZ+p3dWAbycKf4ZAjY3fJE3Tfx+bUsGt9PBCH5apyfCEvWI+wdL0PuxJ/EaZkAPLOn3zMU+SbtZ39Rct8ef3z8fOXb0/Pz9dcvt//PP3fBR9efysTP/wE=);lineShape=1;" vertex="1" parent="1">
                    <mxGeometry x="327.712040553851" y="17.799912113915468" width="54.51242849514176" height="51.70626064121166" as="geometry"/>
                </mxCell>
                <mxCell id="12" value="" style="shape=stencil(lVjLbhsxDPwaXwlRT+qcpv8RIE5jNI0Dx339fbk1JFtcZRzfNs5wl6JmyJE24e79+eFtu/Hu/XjYf9/+3j0enzfhy8b73evz9rA76tMm3G/C3dP+sP122P98fTz9/fawIJenH/tfyxv+nOJqJa5LlHd/T78E4vD/h68n/Mvu9RKfyecBH4kZ4APVEZ+oeID3FHjAF/IAL5XqiK8UQf6ir5MBz75VYB4QKY0f4EShgACmOFaUhSoIKEJ+DPCeJIKASCWOAYVcBgGO6rjooEmCqmZ9nxsDElWQUu6s6bRw5ME+JK1JGgO00CggUhjXEAWmFCuVMaUUKIJ90ATquGhN0gkI0CWOAdlTAlzSImY/BmQSFMDkRmoUhin53NTVAxLUp1Itmy8ICfgCV3LjF8RDxalcjB5EWwBYtAoyjGWVTpZ5z2h67C2AqQB8tgnVSBkwSbUyUlWbZgFyY2KxeJS/awXvDcO5pr8PAtL6AxAfgsVnsABnxaz4AEjkLCWqQForni0eUchZFdRCFb7fzCjFZ9DutJ7O4gMghGv8vcB7UP+Viq/iLaE1H0Agpsyr9SJJUhFbf8Q3JskWH6FgJFo84ifbTr3wDewXt0lxyWfQ2Zl8sXisl3qrIPONio9s8ahjOWvSFI82QLNddSyHBWYEIK3FfPL9Al3jOv/StvyT9SnQr9yKT5RM/r7NhLmnozgKQG0nqg+vFCw66JECom3pEpqo5wHSxnoP6F1vPui5JdAHfW6jfx6QSEaVFd+89tysrO2QjgEgyxCtWckRphSqNe+57/zcoYU2J7qlS9DdqKc0VUrcvjlnUrDmIObmzucBpR0GeoD6HbBx6inZeHFp82Qe0K16DwiQfLm2ad3PE7V1zPl5ItiBo6dANPBLsWxdWiao0kLmsUqcYYtXufhxH9RGohasgrSmhRLKSFZkhacJ9aB+XLIelME260HZmAQPeVSTZSq3Bc3xYoesNnH0frFDEI9AnTB+9X5k2msr3xmPPNF5xJ/xqMUrXmw+BV1UVHsgZZj/hSU4ByATu3zA3AuQXEloXIBv54oPF2w01m4uPiyofT86li0bNgogXCPEbTdLV/H6cL7Getq9vJxuwS7/b6+99KfTlVm4/wc=);lineShape=1;" vertex="1" parent="1">
                    <mxGeometry x="260.52419939999277" y="62.58864145392266" width="88.23192119512566" height="58.28642963169381" as="geometry"/>
                </mxCell>
                <mxCell id="13" value="" style="shape=stencil(rVnZbhxHDPyafSX67uaz4/yHAcvRIopkyMr192Fn0aNlzUwJAfIm7ZLbPTyqipxL/vTj8cv3h0sKP95eX359+PP69e3xkn+6pHR9fnx4vb7ZX5f8+ZI/fXt5ffjl9eX356+3/79/mZbzr99e/pi/8NfNL6n0Mb1S+Pv2SQwS9d9Pfr45PF2f7x2ylOQdioxIHOz34IQuvZw72NepOAf7iZ6IQ5ECDlm0EYcoAxy61HruoOvCyz5HicR+SMzevkjP5/ZNso9pidI6sw/+PqVKI0lrEruzr0ECiWiTUb19kUpSNlY0Nvshgzyviqqzb5n+fkxSfEDbkMwcKlZpz5JIhKJKiN6hi7KyTqI+ByOtnzh2sLL2zzCqVJJkq7Hhn2EMKaSsc5Pi06yBtqZVWfB5Uws0qWsrs+wTp5Y4doKuR9wcyqrdQ4dq8DLQIZFSrX3l9e5KrPlbXKV/51ACcbDabxilyk4YEnymNa6nOnTocV3gLnGJnNDLrvjGaqljh61dNodOEWNkhIBRFlMcOwzEmBFptVpMog9r32Dz2CFJ82HtHJXMocMJgYKAXSl5h1Yl8IeGKxnwNVKtoy1c3ByqJAICFvXmcakazJBqnSjkG6gM2kBd19ebQ5HMis/Yx3dcMYonINAtcb6Wcl2fHDeQIi4ZFiaSaUsT8INRWGeEGDEPhueZZNryCi0aBy0+y2sEnVQp51peoUWN9TLJdOmoYlQy6Z+y4eLWDhQzsspQsC+Mryrqtr5I+Ng+IDd02jtpo5oNYWhRzIxWtCfxSVZjFe4z2H3CCve7fWCqU6X5zmy0IMw+QydTUWX2xec3SyP1Y/bq48nJ3563+XxFqSw+EZ83iJL72PGgd+xAll+rZ/x91vOpIi1H2i9mPzrEh05GJr8ixJ+xjdlXzC/TUnNK8PaVDhXz/j6ejQ9qZY8PDKVn/D0kjsXoZ/ntIIAlEcid9RPgPgyvZrmAhOczguEbsP1St6f9VSD+DH9m/wJPUuY2++7zlT7EH//7RmqsvyJOmZHiVdoNXWE19P9inxP2V6DxyQOVjak5xo8ZhU1YhHZsP7B/E+1HG1Wqr8+6CvDYviG/DPq8VXHKjwagbCuQkJBioQxgsgkYfooadoIiZKUticfSL0uGmHaJpGls6k4+qCb9ChtUAqJWrvRKpqhhYDShwwZGm5Sqr6OppMgJNrzBKGRSjTGZDSoKUwGnVt1R2QdjhO7nDl0q/thhN85ZdbGtnSqqv9aofI1ha/e78YwR8jwCCKpTBtHdXs3G2sBHzAQSsy8ZfzbPwSbLkt9Z9eWdaE801VbfwPrKq8/GM4BVqxaGk3MzBvuNTcmcoUDzYdW+cOEMZ4DZrLwa39Gggy5yOdsC1Z0DE5sG3rCivavHM3qAFrIjGN7bGA1bUeVb0bwTDBZXhn25ILpaqtke2yZEXJYlin0mWaJ3GKZSyAlTJEEHcTieU7Gvvrk3Yg4BwdIqnm7XkKb7Nugd521h9d0SiMZo5WizDzREAXd3lSct4CKhhoVSJ/YAq6XSlxUBZW3hy8e4psQ7wlU2h4juljlMx+/GkKn7CUJ2vM/7YHJWQPDAcxJmNZ1xsIiNKkP7esArr0x3oTMHcEKQymLa8P1GpTvsuZqANSJdw8/RzyehrH3wsf1uv1z47KK7IqWklnS3BqXMn8NSmXezMnneuYuCpl/S4cx+RLBXfh/F2ZSt3+fv46zAKNnsYRHN5Z3ZJxAJ9D7//TXxxw72x/tb6W/Xp6fbS+377/Ettn10ewOeP/8D);lineShape=1;" vertex="1" parent="1">
                    <mxGeometry x="222.37896799883208" y="93.66935772944487" width="43.156818671443034" height="40.7264521497209" as="geometry"/>
                </mxCell>
                <mxCell id="14" value="" style="shape=stencil(lZjJchoxEIafhmtXa1efHec9XGUcqBBwYZzl7dMKpTFqwe9wG4/10fuiWYWHt83T63rl+e10PHxf/9o+nzar8GXl/Xa/WR+3J31ahcdVeHg5HNffjof3/fP579endrI9/Tj8bL/w+8x58twgz3/OL5hi/vfi6/n4bru/OF6p5OF4pVhvH3eZUhnOu0Ku3Aa8Ixn1UQ3FA6BQCSMgFIAFIZDEAQiZON4GIpMbJURPSQCQusYLoF4Kt4HkiN0ApEAReCklCqOEVCgnAFRrdFaZAMhTXmT1GwIS+THSWWPPAFCfGAlCHkgorse1A/oGpUZRjQ0Qu5LXgUx+9JK+CSC9S+3FsgCVElCpslWpvQGpURevL0DoJXgdKBRGt9ZMFcRBuOfmAghMPlEnygCIpwK8JELOAOpoYLQCpmsokB0E6uglKb1obwEiFiigCTSgjkClAJpAU8lbQDCQDKBxwIDpS00msqFSNs2YmRjlRrVdoPkB1GjzYrFAQRIKRWcBVKMtsFMgCsqNQiwWYJSuKmFKpoj8Wmxj0nStoEYVyFNBRBwH5y3gQJ9RIFULMC4ITpMEFGmxra/ZgIyWKTVyH0o3Sy7bOCRgw0U2X4QabRutYKbcgM1SKE81F7ARfi4I5FdVYJIgyAbtQ2kCUN8odsVqbsA1eifge83/Z25U7Uzj4JUAC6KmPqIWgGEXqM4uQDooURx0kFczqSMJkNBWBTOpPVxE2zIy7QIMAle8bfil9GS5vmJJXwoXQBdHYENeVoUF8LDkdCksY59pMkFzzdzH7MWaWNGqqzU/2tBkImDamFSmBypF1dgs0xnGIUZKZl138AYRpsGrVwQHVAqe4mhD+wkQB68L1ahScLC56jUvjIHzqS9d15trtBuTE5h8OnbH7HaOHChp7jN2sQC2bu4b5KI/3H24j/yP4xFU/zRIPJye03EHL4iTMu4+Uxmu25Mj8Y2eba/mnkrX88CayvAe6exFFS+czs6Bz35drGeQ7nd+6/j0uD58fFZ52e52568yl/+3n2H01fkTTnj8Cw==);lineShape=1;" vertex="1" parent="1">
                    <mxGeometry x="363.6622989029747" y="69.32802630254389" width="63.966006312901186" height="46.85089506783697" as="geometry"/>
                </mxCell>
                <mxCell id="15" value="" style="shape=stencil(lVrZchw3DPyafUWRBM9nx/kPV1mOVFEkl6xcf59mtjgagjM95bf17rR4oAE0enzTTz8ev3x/uAX34/3t9feHv5++vj/e9JdbCE8vjw9vT+/4dNPPN/307fXt4be31z9fvt7//f1Lf7J/+uP1r/4X/rnjfJUSOyq4f+/fhCrq///m1zvg+ellD4gS/Qxo0gIBOAnzCqqS6jkgSw3z83Usefh8Elem52OS0M6fj5J1fr5JjOz5Mh84RXHK9hPn86YqgZ63zOfNQSr5+9XuJxfJLGJeNE+AEiQnGuJcZ0CRSE4AEuU5BNVLIyEIKt7NgDy+OQbgiPMZahMlrNMwODYALUggt6RFapsBUbQQWqjEOW4t0bjFKm0+dMsSSRzAsxAswDFAs6mGLTlC7axS58A15CaJQ67LCl5iPgeAajrHoeIayLUWEMFwKdH6Utog8wYIdEtVR/pu9AZ/CVv7BmZqlMgBSNE50sWJEmrgEnU+Q06jSh0DVMp8huwkk8CBCHHeUko00qCaiXRyI8vPAGrqKkJJyIctmTNEL4WtECXNt4SkzaQuIeXr0npYijZnqwaaWyVVo5bx8wbINONqHBvYAKhUDOAtwDfa3kBmC0AcyKEL6D3XVq+jYxwD1NYl9PjKAM7mA/bIqky2tTiP0nlWxpLJBlHyPOpkMek2VNBZIW5zTSrSmAIINhUq7wwQIM1eqCPERmaZC0WTL2wF1IuZ2IhxZqJni+gGQLqSGEOkmbrtcUnkDIoKN7MoOPEMoIP3u9RhGgC56wwAVCeHhtQzvEPgPNO2Rfwihlng/FJVsQJVz2n0sh2AqWGItzpzO1zIw7iskK8ARk8G3koAMOkZ4tUZTL5BMDKJ7pPV9KBGYStkK9IBYCIdkVa/ANihwZxsARci2pJPB3+PAagaagFMWgFgGm6fnRj52jIc8pbet2QCV65uqS30ZoOAXwRoqLR2I3BG+PQUZdNPlhQWAONSssUYW6IJlKwA7f2E50NaUrSRYnyYopVRIy75EGm572XGHFp5HJLoUr1p5csHCaQ8RV2wANZQfhqAIwYjD/2YS48BeaT8rscxd0WdZWtvMawphqVPR1oE0HZNivpApQMau+ESxAlTV1DxhkuF7ihGm3Ccq7EMZm6qXiq5IswtzQRhXPLx8ygAM1MdTYXsbZWEeOPq1jhobvTHM/WcTW7Sdgt5bkRJHDXzTP9bA4r6cxgwjGDAQMLmbW8zH4wLJPPrYjF+qKCzKczq50ophDnPOFy400y2hHnbmJLdpmSj5zINqx9+0TFgaWyaqZRszdYWJB5tbG7j5W5CZ4MelsjzvSZPZRUOkebikgp13XBNxte7MD9bHAJkA0AwEJXUrRVjZkJWMTJVK6sKdxlqGhJn534ybuBnM/lUPlthA2ak7+4nCTWOaAzZFoZ3clyTkMLzCt05ZEUvLv5qGT782cxtIv1BlrOh2wQOdGSAWO0KO8YfI4KdlbAESwgtVrnh1KzQIOm12HtlczfKSphrX+PtGQokLM44Ha6yLZadwKxuhOFobQBH9e3iBKDDsAaXRtnauaVsaAjD6dxKQKS+obf7BxdZA3VWeH4Y8SfP27Ja6fsVZ/VOd2dYAOzz2qgrsfR/jdTE3MK/b1XMoreGe/cwSHz7G0Az72zvvI4BOgzL3TRSL4a8ZRRmmd+9qWX+ZzUbgsJOthfjSz3wMKiX1Oz7pG56sBGsHYxg1N5y9k0prjURYoQ1cEk8YWoHrHMnOXTPNbOlzF2SJm2xty5cEmsNFSr1ur1u4lCppf/zr9CvAfjw8cb+29Pz8/2F//53+4YfX93/d4B+/g8=);lineShape=1;" vertex="1" parent="1">
                    <mxGeometry x="421.9581797179501" y="103.97939577822262" width="55.567908169592556" height="43.64343197650726" as="geometry"/>
                </mxCell>
                <mxCell id="16" value="" style="shape=stencil(lVjJUhsxEP0aX7uk1tY6E/IfVGGCKwRTxmT5+/TEpQndGj+K2yC/J/W+sEs3r493L/sdh9fz6fh9/+twf37cpS875sPz4/50OOvXLt3u0s3D8bT/djq+Pd9f/n65W5DL14/jz+WG3xdeF+ptYXH4cznJVMq/g68X/NPh+T0+kySDr5QqwAdiMfhOVa7jpVK18kSmjghMkS2hUWzXCa1RsBowEwOVW6RuX+BGAkSqlYrVISXqCRAiZftC6iRApFKHxKvXCglwQ4nDS4OgJxkQcqVs/aZvCjBrjlSsDlXNytcJqY6fV0KjkgEhUAuG0JgEELhQ6JYgI1g2CbFTs6EhaVyxTcjD6itBdQCh0alYFTpTAZHBPlZ7H/mxLRDVCd+BiSJxmPBAYXWBeLwEhHeBrfgM8dHaU+uTAPsECuzxESSO4qPFN8rw/mjzrFdq8P4cPR4VI7WnrRS9jJMr/ori8QXHQ/T4CuzPkz1xXWFKk30SjGdXGRWP4pN9N1B/VYx38S+wPTFlJ38fEXIF7+Ohw5oVJ/922Dq0TGeDj0FDFiaM603LAzCBy1QgCjCQtu8JH4DCKm2ZHADlCa4ANVjggi/pSwBBfJoSMsEErtYBSwIAh30WLyM91obRR4nfDohE1SosGbckGf5cm556GBBYZxPXVjPOMS3hVqTaKQEfpOxnzJopgqDOGnXWa0Vgp9fpJ1qzljTGkW1Cn8ZebRwg8UseAqwEhi/UKbJ14EETVy2+9+nAk4HjmuaytZLO7qjYtTJG77W6COweEkZzXwlp5NM2ofgxU0Z92sZ3388KHp/yNOzD8UCLD1s3q1eAwoqvweNBoC7bU/J4tA11P7cHuHosxdnfj6q14pu/Hy1Py7QXnT0zGifCFNUM++Um4QMNXENLMC8Xjd2uBQecxaJucxojz1WPicOj/vHpffpDvH78X94fDk9Pl93//e9+2dejyz8K0u1f);lineShape=1;" vertex="1" parent="1">
                    <mxGeometry x="176.27513926580434" y="135.9757177015465" width="62.42631631728091" height="37.54164329720527" as="geometry"/>
                </mxCell>
                <mxCell id="17" value="" style="shape=stencil(lVjbUhsxDP2avGpsyddnSv+DGULJlBImQC9/X20zTiI5ewpvG8fHkqUj6exu5Ob18e5lu+Hw+nbYf9/+2t2/PW7ky4Z59/y4Peze9Gkjtxu5edgftt8O+/fn++Pvl7tl5/L0Y/9zOeH3EScUwgLi8Oe4ECj1fwtfj9ufds8X2xv1brYX4rK+PQoJm/2dGtrfKFp39ITG6wD1P1qH9IggANAoZwNgplTXAZIo2CtwHTG7DugUigFIJInrgCSUrQXJVIGFVKkkC+jUASBHKvbSKZEkAMhU7B1SowJ4kbu/QxZikLiif1uXst4KRKkUamKpFyE1qjLZWtAjIrBQNdMWoEdEENZaB3NOAKEKyNfUpWYBhXoGAKFkw6pHCHCpFRIbJT0Cka/1cd4JoCUN6qEz5WgBfdi8DujEFtBP7FoDFFvTXV0C5FNAt4nrWqKA3gugeUDDgGoz3RtkqwLElugSBnTpNphzAajIpeb70vlW1wF15PUSgDJdKJfJJUA+zWufLDAGeAvanhGXMomzUKmCAlJAcmHFFaeAyh7AKNPlGr0xoBUPgBa0MQYPCOgObSJfpogAfeKSZgYlrvspqrcKuKbbVNMVsDWG4JWJxiEjuqqJqUYF+5SdhY4v0aY+00dq1gA8VVBH/K6+uV7EYY1NtXkTDdMvTpcQ1F0/C9B5kFxcecjGtaHlLOgRiBw603gaWgU0S52aTm0sYxGkuk6JqLhZqnhwQ0tHewGprioKndpgqI1L9Z2ptLFyHZAo2jagKyhxJXhdqSsRWMjaSy2/F+GIZKImzrZjlaYMEpf6UJEnIXrSgdcB2fe+pPoeWYgeIA0qV1FtYStOBFJD2L8Q6FsQShxPg5czjBJHirb16WtcAy7F4hu+riDlGqMv0chQfZdJw8GRFfyIE8jUMDTteTvSe2Ho/lN4YGlOk4dHeD+2PVIFDThMr7ijN33sqgEq1SmQ+H0++IkWIPfjaJrn7Whg6guadwbNMvbNAZ/Ovlth3z/5peO/2/Xh/FHlYff0dPwmc/m//wijS8cPOHL7Fw==);lineShape=1;" vertex="1" parent="1">
                    <mxGeometry x="235.29598872610484" y="134.29491875226574" width="48.70215972777157" height="45.51780019568412" as="geometry"/>
                </mxCell>
                <mxCell id="18" value="" style="shape=stencil(lVnZctswDPwav2JIggf43OM/OtOk8TRNOml6/X1X9dARIWmbvjmO1sS5WFAnffPt7sPXm1MK356fHj/f/Dx/fL476dtTSueHu5un8zM+nfTdSd/cPj7dfHp6/P7w8fL31w/Lk8unL48/ll/4dcFpkV4XVAq/L9/EKCH+/eb9BXB/flgBkonaDKhSGwFkiXkCpCA1EEAQTTMgS+3HABhgs0mpS2QAlRYmgMJI4jRikmYf1KTnY4BJmZ/PJoFYZNLa9HxBXkhQY5KiE6AiRkoARbTPAMQoEcDGpKYjL/tpS9LjDGiSjQCa1DlIFodXuwBNUucTrEioBAAD5kqyRms1F7E5rNalk7wVFZvD2oPEcgyoQcyZZCMz+4AmOteqZWmk9FqWMIe1wQfSb4Z+c4A8ztwHlMEQ11pCvZM8LC7OtVRVEsm0XS1e9UNkJnVfrWg45SalMgOCNJI4OF1molQd1XUU1jKfkOqorv3EVWmO93ACA6TRXytmZYlDLfU507HRxNW0mQ7IAwEU/N5cGuBa1qIljoZczZ/EWrRKmqMU0XEkSjlKnk1CrRCuB8v07g8IbMBh/iXvAiU+8NhcGaBz5gLqQIuPamVDWseEXeUtMZN0Z6p30g7wwY1QDIzMANGzfewjbocyYD5h+YacAANsIzQKAzQ/EwFIpH8Qk5i8D0q4+KVbVlFi7RDzJnFVCjMpj39fAVmMSZnsJxZqKZLSgA8+03GQ7aEccy0d6MRCTFL1AGpSH7+3BrAWjV6DAsAkJcpbdeM0E606DFgTHztBpThAHvx/CHDUWiUzk9KQkCu275yXgnO6c9YIfuriGzYelnZRDyisNJpY9QDlxVc2LVp5eWdXGkZV6H8DIO7z7DTff6BaY3HPB/J8TkMarZ4nHuc2ArKyh+QAGre5whsa9kjiOtLTkZP95zHRZ0YqYz4eyZ7o1oAhCfafb6NN1hKDLW9pk2G0JpOrOGFD8530QYdAcI1zpYN9QPU+LDKFJLl3r9FRJnRBDNcqu6YBcSAMthwxA2ocmTxywq8BfWizfUAahXzdTAqdJFYlzK1jidI2VqPkFj6jiWjRr5RdaSKguV11L2EgiSjmBwMCzTZE9Gd36jD8gzG6H7g4gl1n5Oy12GIT8Vq754BudC/GMuVWk37N5SvvoXqiqzqmm7lFulPVjdnjeNv4hF4uZebaQHkZvfVx+xsWb8asxcvPpX+YZBjTe7V2MzEZ/KaEdY5di20ZI0gnEd3cfeTCr5Q86WFHZ3eT2e9Vmqk83wxCZMSYuIi+5pYNnW0YZWcwsNUQYsXcrM30KhM+++EWKAlr9FeT6DySA8wZt3vyaw9Vz6jKGz97taO0K7X46y2lghDPm1cjRmpCq7/nyVS9QK0Fr14oM25YpdKtFs+7a6RGp4FutIgNNfNKtck5BfHxezy/dPrvNwyvAODDywuN2/P9/eV9yPr//gUIvrq8PNF3fwA=);lineShape=1;" vertex="1" parent="1">
                    <mxGeometry x="141.0182164443778" y="165.55611718621287" width="32.551602321083806" height="28.42287388914997" as="geometry"/>
                </mxCell>
                <mxCell id="19" value="" style="shape=stencil(lVnbctw2DP2afcUQBEmQz2n6H5mJU+/UtTOO08vfF+oOpQUkHddva5lHEm4HB9BFPv14/PL94ZLTj7fXl98f/rp+fXu8yC+XnK/Pjw+v1zf7dZHPF/n07eX14bfXl5/PX29/f/+ynFx+/fHy53KHv284yZR5QeX0z+1KTpT1vyu/3gBP1+c7QFYq3QOYhgAAkw4PqNT7OYA7dfEAu8IAUKn5VzKrBLwSZ1L/BGlUKgAkSv4JhSm1c4BSV3++UQY2N6reR5WpApPtbsWfb9MHJ+e7v3+zqOTz8+bw7M/j+5tHsweoZcUAgEbq806VGIQgZ2JvcrcrwEVmQ/ZB7ua1dA6QQs2/Uh8zLIeAkmg0BxgZ1k5RSj4Mo1ACRtdMrUSAgLhVjaUwBJZCy1QDgKkDLzUl0eilAp6gecb1Lg4F5JLuUsMiPYBbO8dq0D7r7xhQqYTkK5MGjwE7SmpmdDkHmBMleUClBJ5gYUrerS1RAwxjgPBKVSCHWW4O7yXjJETcfUcClvAFkYaZ+CFa7YlkR9wJVJzWmcxra9BZtMcAI25vdH6nHkpsbzwgoI74BGtHHdV0iZFmgblUxqTqFZCno48BEnu69a8Mckl6BAxq4AEWpR5oiRiELRuz+mroVMD7WIxqPI/K03pDDd2HKvDoIkk8cVv/xRJGvH8q1kgc/Sk00PvzTlNNVj6zN8gRhoVp54en4EQV+d9SNIXzCb1PJZZ4HvlzbcTbedRCLJwcKmDKjbPzGv2JatjSi2O8GsqfHvs4Jvflffz9zQGoXnTebstnQfFqkVI6lkaFRg/nEU+bO3oL5wX5J8fOoVDALxNED/4ZQINs6b75X/H9Qz2WKWJO693Xi+D48mT8LT8V12+QdQn7R/bn3+FbjfWekD8/eN7ausR6RPVlw1Lz+Wn1iIS11YvnhzK1/HFL5dnetnxA/cuGpeTtVahIbVgqnt+WhopFciAI6/EKACqRcfkdYdOpeRO2pnastXacnhucPUzWcxBnWP6NHUuI9QVg9FDK3oaC826MmHelQgCnFK3e5NfZI4L0qH02z2NAj+NNEyirR521vgL6VOZnwj2yqcyVyplwH77cFNtguSE+XTueS3XM7cQKwB1Ed7J6ZCjpbL4KM535TVDJSdzpWHohL1lcwyxhsUdFbcN4mFbu0uuYx1ociOwRBVgtO7+aEcivB0q8TD+cSoXwBIbawsYfDtpCYeR4R2V9Xd2c7MoCkymeGiXudSxXOjA5xfGpZbgd2FNGg1FOcXdXBtzR5JjZJcPuXyJfSINrKY1iRBhOf8xTjN51BjSecYmE9M68wj2m9ZJVSNDudkbc4DZkWSmH/llgUsg6Ad11aLgd5Dny3QHQCnhZZaQIYDxVt51oQA1XJC6ZDNBBZhhg7yU0+EqZYbpbbiAWNoAEQIORll3rMeGTAFsYIJSPAdBwLWs7XgEdTgsGKCHSA8rVhYR3O6OBAvfRjy7/A2A/tm88365PT7dPRPf/j9+E7NLte5J8/hc=);lineShape=1;" vertex="1" parent="1">
                    <mxGeometry x="266.823893192422" y="177.9634390330092" width="40.40602831766773" height="33.15274962356466" as="geometry"/>
                </mxCell>
                <mxCell id="20" value="" style="shape=stencil(rVfbbtswDP0avxKSqBufu+4/CjRdgmVJkabb+velZ8ix6PgMA/bmOOfIvB2SGvjhbf/0uhuCe7tezt93vw7P1/3AX4YQDqf97nK46tPAjwM/vJwvu2+X8/vpefr9+jQix6cf55/jCb8nngjlNLKC+5jeBJLy58XXCX88nJb4RMF3eCHnAN5T6vGeqaRtQs1Uak8QCojgqOTeg9Te3CUUpiodgZmCbBNyJt/7ENUr8IVUqISOkBwFENWoQex9SPqGAWE+rxFyIQYE9iSxI5RItW4TQqTYE6o6DQi+NotnQqGACHpeT5BANQKTbKJvxbuBDyu8eGAQFVOqzsHi9uTT6gMA7yivHQAGuRa/Bd6DiDpbRVIpg4DO3i3wDtS1I28SVigC4TiKBp9JIL5mi88BxZ/F4iNMsCSLZ6QBitXiEyw4ozHFV+Avr/KrIgbxZ4rJ4gXEh62ENb8JxIdbo13UG6qH0OS0wCdgT1jZI1Dw3jbqUV8gnr61wCUe5EvrLVh8AU3UrepNiKG+zNzQ+Fd4/lqPAerR9UNA6yGDMaP2e4v30P5i7MltsP0XvLQpOuPVQqT3TK53oOoQAw13rLieULSDIoLYkit6BCBwJW8GcYSaj9oSekLKbSzcXyZS67Hz9oFVn7kV2bzf6AYFCMW3rjYTHAnaoGqLybxyMWykmiazrmgqBSihqlB6k3RbiMAkXR1MlHI74T4+2yA5KP1RKcHg0agZJ2M1eI/26mILz8EFUDuD0TJeVRRfrL8O2SN21ju4hSs+FoNHo+DWaW/4ivIrrebngoAb9WJ1uxEKSph+oE9YaNvdFt4sKwGux/980forXh9ut7qXw/E4XQqX/9tboL6abpD8+Ak=);lineShape=1;" vertex="1" parent="1">
                    <mxGeometry x="399.5004561096533" y="145.15640496728815" width="48.35695154178438" height="46.187826564676584" as="geometry"/>
                </mxCell>
                <mxCell id="21" value="" style="shape=stencil(lVbLUsMwDPyaXDWWbPlxhvIfzNDSDKVl2vL6e2QySSq3EcPNcbKxV7sru/N3p+3j27ojdzofDy/rz/7pvO38fUfU77frY3+WUedXnb/bHI7r5+Phff80PL891i/r6PXwUf/wNeByASwVRe57mPERAv3OPAyAXb+/AJQIFBQgyIw3AAVSVgBOkJIJCKwAsUAOBoCBNIeMgMYKWTZAClAccF4GpASsSZcEriwDIkPWK6Bz4Nwygn1bJqmDM4QIBLEBBCBeBngPsSlTBDRYk5RJs04M0agrMYSklfOQ0VwBnfYGQrY4ULtCQHCGN+pr1P4mYEsHHL02AuomjRVmihOAgQ3ScxEvVkiGmapMTUbFLFbkJiNMVaLR8UuRc9qubAt34eZJajaVq4HRdq2higZAIqnLVGNrsK6hjzoQDN6QurYVrVxtPcaW+CoQc3O77b4r5YrdLKX5el2luUEvAsp/ABTBaW9kEc4gjbGtUnaAltJA2hlJQmvI4Ns+Jolyxv/FF5oASyc0CFw5VXqC2ZTAaRt5NPlGiDo7hKbt0I/lmM4GGk+L2xuiNp1iIoOA7Lfo5NhN9fok+fOoYmy+T0oAGcwXjk2/2w33lcv37QVFpobLjV/9AA==);lineShape=1;" vertex="1" parent="1">
                    <mxGeometry x="393.0564515147091" y="195.39325492600688" width="3.223075511652496" height="3.2248481794399595" as="geometry"/>
                </mxCell>
                <mxCell id="22" value="" style="shape=stencil(rZjbchoxDIafhluNbNmyfZ2m75GZkMKUQoaQHt6+2lLDWrB/JzO9A1nfrk6W5V3Jw9vm6XW9ivx2Oh6+rn9sn0+blXxaxbjdb9bH7cl+reRxJQ8vh+P6y/Hwvn8+/399mjSnX98O36cn/DxzgUqeoMi/zgKmUP8IPp/Vd9v9TL1QHNUTVA+BIg/6hVID+plyGvTtCZKWATM3hxFQ4gIApaADYCFQAEj0LsRKDEySSlIGQBIlACRbdkFlKgDITGk0KRXiAAAlGZ3OQgEAGim0EWg9bveB0i3ugCZSAJRIZfRBG2UEmIsylpLAxFWmNjptj0igWGvyJtVAAeShVopjpu0RystAs2IefaiFFJjUhNpoUmOKIHHNgugApZwhUMZMN1xLBriwGpBRD2AmdjbVvqcWX3EDVGzT3yhegAbbxrScPYC2nBngvb7EYQlwnWwCQOszIIgHoNPlJnOtN5IlwJtkXmEgBQ/IxwAzUrBJ2QNoy9lydW9QUmSShbV4QFDx1V7NMwCa1G7KW3v3XCy+5oGEotR8YzKgYpNa9GGVD+7Rgsu19dKZ1YbiPVpcIhqcHaZqvgE0QiCwBxoyqfq2MYvDEhFv2kBFYSp9eQbk/wpESi7X0o+l+6eWBcUVOMOhzM4oHgGToC1UxQ9lJkGtrFhtuDcwHDdKpjrWRtE+dd0Hgj8XbQCJoJhUfbO0EUfAJlUbNxwQqIIo5ewbvkkKcDq13ocuY59tCDRYih9dTSIg02LNd6ylSQJ8EHN69MEkBQB2X3CASRIojWDN0g34tef+PpB8dzVJBIkL3C8M1y4A50TthXO906BZg0lHewTeBrivXtXRwGfj4KgeYT8yX5tTz/DpHJw646eP9Rbg2Wzq6tRRotjfSZgqVJfq1DOoTO6n11U9wjRVbwy6doZ+1M3UgTHBH30Mr5wfvMT/U91+XL8XvGx3u/Pnhvm6/75govO3CXn8DQ==);lineShape=1;" vertex="1" parent="1">
                    <mxGeometry x="445.32598947742633" y="148.49517280445218" width="69.44836511216192" height="46.85350850849454" as="geometry"/>
                </mxCell>
                <mxCell id="23" value="" style="shape=stencil(lVnLchs3EPwaXqcADIABzo7zH66yHLGiSC5ZSey/T29YWBEDsine+NjeRc+zZ/agn348fvn+cEjhx9vry58P/x6/vj0e9LdDSsfnx4fX4xs+HfTzQT99e3l9+OP15e/nr6fv379sV26f/nr5Z7vDzxOudCm2oVL4dfolJin6/y+/nwBPx+dzQJRYPCDadUAu0oMHaCCAIK15QCUALdLiDFDJ5EgapKYZkKUT0qlIcaRNQiQAcOgzoEtt1wHv9xuApBIKAWQJeQZUaYR0jFJmP2iUTDh0ibMbtFI3mL9/jlIJgyplNlGuooRAl6DT9aVKzJRwqxOgRu6DInlmXE1yIoAuNvvAlIcFnjBzsEZzQZOkOfCaSiGkdQ+zHdAksfSsIwgGoCNQCIeCZHQApRxKE1sAnfihZmnZA1hoWxCbPd0TBxRJwZMO5EjWRbM3ayOkWxoUd0Ad+XQZUJcnwKyVpEMY2bXHkkklRQw2cQltUZQcCYDiEujGkfZOsKeoirEjgcNMOmd6pAY/zAmEgDfmBxt/74AigQHQTNwTEF2dAOKw+l6IbwQf6rRrJlUCMasln0BbaSNmrW3poEESeQL8WmfH9XGHaykdij9RIkZC0ciuH2bKeesFjjN3NGRGmns6ejCr9hlFyHVccCCFL+/C6BzAjoS/9a4jBYl6D2kEv84ZGtFPSM/VJt35oYoxqYSu6/RhGQLwGqC42FNalkA6LwpUSSy9y4qz4CvkSHCcJ33DcXkxK6+UCD7XE8HhRnh7gNL2kG0k8FkCVaJNAHBiBp5OzA/rE2z04Y9y6JLushLyId/lB2RcYKGxeHpLUeaHJZZwpM6KwBKtAASeQD4fGi3eFzLORi38aE4XWmYuVI0skZOOc5tGeBsz61rIOAD9wZV7pAOJboytbuQLQ6tca3AtuOuZCrDoVXHk10N6zSbNdLaCPDTn5EAJQ5Z4nymXJW1kylkYdQKAFlPXQBMtSZs8dLlThxUuA/KixSKtYb2OSeRsBG2MQxte2t2QqC7pfVh9B9hYV1wDOA6QuDee4GQGxFMmVooheBKIXraSwSPcvAQByGJjZW28R3fzJDC3srrai3Q3zWBsZEfSZdCt1K6YBJyKxi+VpRyO5DRuoluiVdiDFdt0bcLeTZVGq8BWZWYO8Azrb9tk7KpA4IUMwRarfwRbdZU4xNcOaBSAJu3NdENS2oj/8wUCYY1hpCzDt5HKhMLlWmjbB5xrmx+nfVDQ2YoC1dovcvBMUsqqD+9aaENMI4H3qtFHS714ffBegx9ZCVhqDNxYyPVxmbsbrfXqz6OQZtQ+cT5PMmrP7u+PE7K9GLqlIwA5zMIaKi26/ploSICy3xGHsbG8FtZuPDS6UtoWF3MRrnyzF0bF3WOC1rt1UV9oWq5vAgpfHC6vGvgkWRdBUvgSI46IOTsP4bttg13bpDvAmrwKRp1j5192HkbbOK53S5hGp6P1+k475nqeTXNyAl72h9HWP2hRzM2sJ68u214mMcASEwBk1s7ufr91G4AP76/Tvh2fnk5v487/96/f8NPp1Z1+/g8=);lineShape=1;" vertex="1" parent="1">
                    <mxGeometry x="376.3934042145419" y="192.38470683465164" width="37.3984889590854" height="31.57830495798123" as="geometry"/>
                </mxCell>
                <mxCell id="24" value="" style="shape=stencil(lVnLbhsxDPwaXwlK1IM6p+1/BGjaGE2TIk1ff19uDa1D7u4EvTkOKYnUcDiUT3Lz/f72290p8/eX56cvd7/OH1/uT/LulPP58f7u+fxin07y/iQ3n56e7z4/P/14/Hj5+9vtYrl8+vr0c1nh98WvZOpl8cr85/JNo9r+ffHhYv9wfnxlL414OPvENBQ4ZMrJOxQqwCErJfUOSo2BQyFuziELSTl2SIPU72B79gwcKqmPQQrMUsok4hwKUwcxjLncat8pgRA61ersq8ADNUp+/TqogfUtYL9+KzQqWr/5eNuYKdu1Vyp+/V5gvCmRdO+glAe8MmHnoAZEgaAYPkVaqYIjWY6yrxxVqgBFkoh9DCNNqO879Hni1SFTA0EXoexjGALTWgZxijsgHNVCWWMMAtJalUb2WRpUOkCS1a4/kvZ5lfsOm1rQQopqx7Lu02rQgMXWNuDrxODilCMjdbyDykTOWj+VBnJopKGgjcJQwY2Zk9XBeBsxUoo7GLoSgLchh33FWa/oIIbBlIMDkwJ4L0H7m7YaRDHYvUroDGtU+zdtWPI3bbSA4N2F2B8p9XnIfbTqRP8rB5TW2mNaU5tMte9QqeXo0EDFWU1LaOkVxmC9pvgCspZewcXVHC8uyYzqyKGHoBNlFIPELI15k0f2PXAArGjLUfc5euMSNjLJOATfctFgj7qVVbuGhgv1hbX74dfv1EC8jeP6Y1Lavv16Pa9kIZJUOw6ZCtrBThRgbZIBMN4SctihUkEo1ajyrHDQkZZL69FhoFtrUQGYgyIHg51GByQZFlynGDTjWo70gpXkbmlCttgWP2PGM3oJwmp2+KMkFR9znyLlkCDjyIMUycLAoTlTQjj6T/vWIrLbbFv7PSdP3F/jRbVpTU055hPkfxEjAUMJam3dkIuhlJFUqJMM176cZ9Pad+izEFcHzHdjRPWyDK5oYmOOhVDSVNP7W2zmVFNUSKha1Mn3BKMoqKjSpil0iAzddBEbqzqAtgmkEUotQVJdBFLomw3O2naA7ZSENFvnWD2WBhSDKeUgX4btiVoPUw0zjMWACMYmPc9gdvdoBxurgkAyPBaQ1pLndH3lSIYKSdpmNhx4XB3xCcCCYHAmK8nQDpeyRTN6i2CykSChmkvx5hTntU2VudoLJKYcSaB32NCZWrC3kR1EvKGMViZSDuxD67RWAV+2qAR7/NZWoqi1kQ3WWhR5y8QGSs0urG0mNsiqNe6QBYoFS1Ggi6RzWj96/Guh9+AxNa+ce+2G6LVANt2wzgeKffvNOxJDzBWOoGYY8LUrXe0RUZj9kGgP7tioKLAjQ3JcXgVqsEcvf2bfgrqggrhUIjViUiklvu7kOQcc2vv1ZcqxI/vwZFbgS6qdv3u8VdwKJL6wYeHyvw/4b9vbh+uvBZ/ODw+XHxte/z/+umBfXX6ZkPd/AQ==);lineShape=1;" vertex="1" parent="1">
                    <mxGeometry x="496.84994315643667" y="192.42275195818945" width="38.666383787024415" height="31.00637735047667" as="geometry"/>
                </mxCell>
                <mxCell id="25" value="" style="shape=stencil(lVfZctswDPwavWJIArye0/Q/MhOn9tSNM457/X2haqiKoLxt32Rrl8KxODjxw/vx6e0wBfd+u14+H76fnm/HiT9MIZxej4fr6aZPEz9O/PByuR4+XS9fX5+X329PM3J++nL5Np/wY+EJU/YzK7ifyz+OJP3+4+OCP59eN/gYKBeD53ofn4RiNHjn7uOzEIvF+/v4IpR6PFPI9/E12PM9Uw2AoOf1hJCoMiC4dt5qUaECQlTXCDaCFGxSsjmLFZrk3Rr0xsienIBPVMp92orDXkeqvU3VEwMnijrRx7WWJq19ZQSqvUkbt/a1p6+5/0SmCD4hmYJxgimCamDVTp86dSuBXIfQpLAmopJHqWOSvt6yg1/wJP0HYiIH8I5Cf35k8qCAhphKbTG4g8+px2v5gKQFkl6pIhSAjsT2IwkQnyn1KhJPHuC9OuAsweGMpWAJFYjIJ/LmC0wFmZSpFBtTAU3SlyFIlSRiQm+S9v2EnB7CGmMLwz4h2vKPhTzyYZXlpunBKKmyex+0H0Sg1Ew+WTyDHqmTKlqDHOguob3dVGYFSXCtV614IQ/OH3p8VKEC3bmmmVUUGVamp9wnQCI5YD/bOaiVmdGqQMl0Cp0gwN9KyYjawXj6MBA8RZBg1ajZFbQwoUZzM3gTIgEu/DdBnY6mvWsVAJN093B9llNqQ25f1YW4J+jgZbQRFpI+zzm1I/bzXNuGthJ0QQIjR1/XfuboMsKAUHybqRsfkNNqsel3Sbs4WlO5DY1NcRagJTXAD9UD5xTbjsoCyzPH9npdVCPMw+yDWYUT3HbGXV4rBG2242VBCRGJb7iNKEHA3JlHa7UEKO9VOStBvQJa0gKyaye3MOwTdDr3edDGE0DilGAat44uJD5Otglo/SCLBnyGy/9okMYUpHn0mOGKOoY04EE75gxeLUZRuNb5/1F1+A78d7w+/Llwv5zO5+W+vn1vL+j613K558df);lineShape=1;" vertex="1" parent="1">
                    <mxGeometry x="343.08851114057427" y="31.268067372929693" width="18.493348397405725" height="17.72996992607972" as="geometry"/>
                </mxCell>
                <mxCell id="26" value="" style="shape=stencil(rVfLctswDPwaXzEkQJDgOU3/IzNxGk9dO+Mkffx9obpSTdja9tCbLHOF12IBbuTu9fnhZbvh9Pp2On7efts9vj1v5MOGeXd43p52b/60kfuN3D0dT9tPp+P74fH8++VhOjk9fTl+nb7w/YyTSpknFKcf5ze5UEq/3nw8A/a7wwWgKEkbAI2arp+viXIezidiWz/fGhUO55E/nan34bwR8/r5nJbvzQBWashCpTp6JA7o6wDr1EcLpVCtAJBIygBQpgaCqEZdR0CnKusAbaQjoCrVAspcqYQyZ0ptHeA0sDEGj6pnSCQLFrxyIIbSyTQCDKRVhaRHlxTEoFfNYEIZARbuLwDPG+CSWuyGiSwgS24hj1nqHhWqtFIaLTh/BXBJM5mNAJvJcrsORmlMa++wH5z9SSMAUiNdBW0Q4Cr2mwgXQRtQGSmR3t2dBGkVIQ4xJKqAGrKUaam0lxKk1V2qga1ChlxqxKPMGG5RT2sdAa1Dl7xwOvbD1KLIgkWZcYAi8vE8DC5cMsAlp7eEFmWo995AQVtNYQxTiwaAUcPaGuZD/4tLGoWs66xUa0IWe7rNI2ZNKstYae84xVM9AC7m5H9CZImV6Musvwm4GtRWYEO0OevLjDOqQDW4RPJ57VEEk2qEscvQI2+gFjaBBl3SJcIFkOf95vYmsNR1WU4YxtBSHIrZ4CYw5WTUVmYqSO695UcLvpIVpBo1rnzsUYHBPg2UsR/EJwYCZNIrACMx7nFkuUuGJ1C7CtrQfChRBJy/KK3TQAkAhZu3EyFs6izUQKXFqRYAeS7lmoUwp7MLD8oSRwu5zVGtZUnGwmWFQnbjPiOwgf7hAuQPf65PT7v9/nz7uvw/Xrf81fmqJvc/AQ==);lineShape=1;" vertex="1" parent="1">
                    <mxGeometry x="235.7536581513175" y="104.55641865836219" width="12.792644424140235" height="14.69749603456171" as="geometry"/>
                </mxCell>
                <mxCell id="27" value="" style="shape=stencil(lVbLctswDPwaXXcIPgDynKb/kZk4taaunXGctvn7QFXlmLCMTG4UiRWAxQLkkO5etg/PmyGGl9Px8HPzZ3w8bYf0bYhx3G83x/GkqyHdD+nu6XDc/DgeXveP8/fzw2Q5rX4dfk9/+DvjMqPmCRXD27xTQeXfxvfZfjfuL+wLI4bOPjYI3QZwAqcOkCNCuA1oFbn0EZXF5yqAQlh+eEZUcHNdtD6mFjF93gQUpJ4l3clOTLWBYw8QNMdDjUjSAxqKw6tkpD6HCx7WK8ErLv6ntV5rPQ42CXY8lIRqPGQ0dgABbHgliOMhN7TeQ/1Er4RmtJFdD5PAjfz8kDiicAeQhixO5QKoz0EqYnIAenwFIAdQGSHZkMipg8rfNKkm7YWkQjBaUlrJkatKTQxAXH1P8jdaIgQvB4Y0Kz6vRyepmSkgoOrQqmIm20DkeBBByBbg9QPX5fgCwE5ITCimRVUszugrxU5XnWTeYNIGsoCI6kjjywBSMfeF00uJPUC0oy+dB88qIKCYUak96wy+q/uEwlLIG/a1z1gW7a6aJ9udZRk56zVG7lWX3NbUWE0fkM/muf6L/ZmuVft4JTn/2lEyIll7j50IsfGIQ36SZTx/5Nuc/2dCZcOn12I52yunQDz7L76oPrfXxcfz7Wnc7ebX3+W5fe7p1vxUTPfv);lineShape=1;" vertex="1" parent="1">
                    <mxGeometry x="449.1128441524812" y="118.95609152515374" width="5.17547301033494" height="11.80661743558801" as="geometry"/>
                </mxCell>
                <mxCell id="28" value="" style="shape=stencil(rVfLbhsxDPwaXwmJ1IvnNP2PAHFqo64dOO7r78utIcWU7SkC9LZec7QkZzSUVvLwtnl6Xa84vJ2Oh6/rn9vn02Yln1bM2/1mfdye7Gkljyt5eDkc11+Oh+/75/Pv16clcnn6dvixrPDrjEsUZAFx+H1+wZGk/H3z+Ry/2+4v4mOi7AFRKAMAF2rFATKldD9eGqXo4gOx3I/PgUqd4kO4H18CKbv4QgLyKY1C9gUrRQYA7f3oAKmkEQAyNZ9RzhQAICuV5ktQ2NMsFJIDtEihgpRi73kHVHsDvqCBxHepMtSRSs94ACxJBYBC7HVRM0VQg7aewADYmwYAOiupWQ0gpRiG1AaiUEU5KYkvQo0IlFOloh6QqGUAyMQTYCxxG2A1+qrfk7wJaNqVcAHIQBvWE/b6XqgBNTSh4tVnVTUgJlNznVJiuKlboOrl2hpF9AUDeDFZkhXVELsQhvqsS0AaS9EToMA9urTVu4DtoIKJE69W26PINqyJSWYA1FLuXR+ABHkwbdbpC5UYuPeizcnJzM8/uEdz78NdG5i0Mfz2rtFMchUMKF1rA2BDEtmGdOO62EEKZpDZ8ewCVsP/BNhYVE/ERadvD6E4IxYywWSXQsUzZ1kq6KsMaxxzsUEiUqDkq86tb6rbgDHJOyAlirjo4Klm7bP49hd49g028gERwrMz2YGmgpTsgNd8W20J5N8x9ik4ig7wyGfK8USnSBmUYCagczzaDplUrtZHrFFsc/4FrM/z+BGFphTnCWoHPgaz4Up1JlwFBNi+8vNT8LnkyvGMkQr4CrPNGyMMBkmcB491GPFl8pryYWqQr4/dSf4dbw/vF6CX7W53vj9d/j9fmOzV+bIlj38A);lineShape=1;" vertex="1" parent="1">
                    <mxGeometry x="392.3596261524568" y="204.76135769932023" width="17.02303693612589" height="12.107643512170966" as="geometry"/>
                </mxCell>
                <mxCell id="29" value="" style="shape=stencil(lZbbbtswDIafxreESEmkeN1171Gg6WIsS4o03da3Lw1DaSTH3Hwn2/rM009KQ3x42z+97gYKb5fz6efuz/h82Q/x20A0Hve783ix1RAfh/jwcjrvfpxP78fn+fn1ado5rX6dfk9/+DtzwhDiRFH4mN8gQZnffJ+Bw3hsgcgNEANwXgcKgbRAUqCyDmgB1QaYfuFYUAWRFhCI5AAM1Aat6FooBSS1QIbsAFIgtDFYVDGtA5whlhZQKE4MGUF5ATgWomWdFi7pOkAFcuiDZkcaFECpT2txsoRShXBTuORYMKAL2qThWSD73FqwymQn6IiQW2lIhuCoNUUI2AKm1uAUjgE7AF2AFRL3FtBxqSBwB6Qqx/v9gJByC0jtkPuAgHSFQyBxChcChFZMJYN4PklfOQ1+U2MV5xVItafW0tTLVdymtkLIouWSE4OVOrUWbvKwpibS3kRwKmF67WafDTd2oibTazfKzKbjEtooa4OwaajOoJmAuAC8JgVsDdhsE1zfv5DSP04g082mIw7rDLpmqE7/+zXru43dv2sdWNfjEIgdZ67lrPstXd7UTr1Ig3u0xQhM3X5XodQfhf5+qyWHDf5k3RYvM2TckM+vYft/5bLRqVvUcP9CtRloPLLF1/3tZTwc5uvf7ff+vmev5rtifPwE);lineShape=1;" vertex="1" parent="1">
                    <mxGeometry x="512.3690546683979" y="202.22823516945266" width="3.4121870564101755" height="9.990117351545564" as="geometry"/>
                </mxCell>
                <mxCell id="30" value="" style="shape=stencil(7VjLbhsxDPwaXwmR1POctv8RIE5jNI0DJ339fblwpUTc9SC9FC3Q21q7Y4qv4Ug7vXq6u37c7yQ8PZ+On/bfDjfPdzt9txM5PNztT4dne9rp+51e3R5P+4+n45eHm/Pvx+vly+Xp8/Hr8g/fzzgNFOuCkvDjvMKR5Lzy4Qy4Pzy8AohSyRNAhFK+DOBGebagZgEANFFLEyAGau0yIAnF4AEFWMiFZLagmZJcBpREtcxOFwoJAOz/dA6rhaEAgG0pzoBCHACgUp6dtsQVYKEGSjwDhCqwUMU7zUwKolQTpTmsHHpmtgGVtHoAAwuNScLKAnC6KdXkfYgRADJx8VFqyEKloD4PDTRQa6QOUEhBLRmguSjZCvJhvH7doqCBOAQKc1ytRxntqVKRueVsBce1zHHNSgoANfegdIDlElmokcK8pcUmAhhJzHE1ryrInDX1LxoagNapahugqy01qgqIyWoj+C0lBMgk6p0W0HLZ8so+rAHUt6XJNURtsOUMkGanjRcKqL6cOtENgJAiQPG1VIxcUR7YR8notiKAbWkFYETfjUL2gAx8MBczex8UzCwLos7FVxlOxWo7jj4PyhCQ544zfkZMZi1aXQMNry61aHPFZ4MVTRT2TGb9gNSJTUVZtWhBkz2u2PiFDLcRNnFWJgIuV55ro5l4AE5Yj2ZnwboWAQaVDoBxG2IB7QpspLpAp21L0dWGYhaIfcy+EVCkM2MHpCEcL2XOlWvMkGesqV0xqY1FlOk/IeLSnOm/QsQ5H/6LuH9BxBkgz1uSCKWARckd/ewUFIEPi8Kat5QYi43kacZ6WoDTKfohlxlKgSh9HAyA9LPd9uEy+LBm7IMEbyGZ0gVDjlctungFnF5pbzu9oh2F1VlU+8p22lYsxlBTcvIDTiEBvHDcMEAVnTZWWmkI8e0MsGfV0JXNpRsKJ0DxQJfkzwGhM9r292VFqbDkZAyNkTB4YaLc5cQoiC5ft78X35YZqgX7PrrhDzWVfb+SSBRBB5gDbjIb/SJi+e1LqDcA7OHlzuv2cH9/vjJ7/d7fkdnS+X5N3/8E);lineShape=1;" vertex="1" parent="1">
                    <mxGeometry x="283.7849355922973" y="188.84894703152793" width="14.011449795424596" height="15.020979836240826" as="geometry"/>
                </mxCell>
                <mxCell id="31" value="" style="shape=stencil(rVfJbhsxDP2auRKiqPWcpv8RIE5t1I0Dx+ny9+V0INXUeF4ToLexzCduj4smuXvdP7zsJu9eL+fT192Pw+NlP8mnyfvD8353Plz0a5L7Se6eTufdl/Pp7flx+f3yMEvOX99O3+cbfi4478iVGeXdr+WEyYc/B58X+ePh+UpePEU3yLNsy4dCKRh5RxHcn5hSHuSd25bPgWoa5BnIl0rFykdiYA+7rr8BZo/jNqLm5mADBCZXAYCbxd0koQpiWhNFG6PsYdJKomo1FDUSaMhMNRpAjVT9NiBmqtakq8DdJkY3uavoqbmtglK1PiTyQIES1RK76AlIg6PkbVALdGDFC01CZSRfrHzKVACPfAt4lxcSEJ/UWNlZVKE9rIUyVAI2iANFHgEBRIgL5cEk7QbAJPU5WE5oOxAUo9go0AGRBFSCRimLzZqD1ayAYmmUVSeg0cxTm7fiyCOnZSz/EnBYK0WbOK3mAKqZY7uvA0or19sAbVgyAlBtppGrahGDdiHjECkC20ufMT0JlRKuTUs8HRMJ3O9IbJJTbRZu1OYwNFOgDOKjQ2qQd9Df0m67KhxU+yyjw1qaEJBHj1WDAxzSFIgbXfDlPwJCIGedTuo0njnrjlpBaWqDDpZGmmaUNm0mY1hLM/I2oIxEDQzXkaw93QK0lhLSsNqPtOFk0F7WC9i88YA8rDc8pW9EmV6tkAoIAKDkyzwC4BKmDczO/rlpIoC09eZqaYtotq0WHu2yARWQa7OyA1Ir8i2AHxbtQB5rGAH8QZO0jaAgrXxO2KBVUEPbIN6btba3vpMWDOU/+nT5t7x+/H0nPR2Ox+WZdf3/+K7So+VNJve/AQ==);lineShape=1;" vertex="1" parent="1">
                    <mxGeometry x="149.29596431895766" y="174.5363708624858" width="13.494998093048594" height="11.465279554289395" as="geometry"/>
                </mxCell>
                <mxCell id="34" value="&lt;font style=&quot;font-size: 18px;&quot;&gt;Binary tree&lt;br&gt;children &amp;lt;= 2&lt;/font&gt;" style="text;html=1;align=center;verticalAlign=middle;resizable=0;points=[];autosize=1;strokeColor=none;fillColor=none;" vertex="1" parent="1">
                    <mxGeometry x="500" y="44.56" width="130" height="60" as="geometry"/>
                </mxCell>
                <mxCell id="39" value="&lt;div style=&quot;color: rgb(204, 204, 204); background-color: rgb(31, 31, 31); font-family: Consolas, &amp;quot;Courier New&amp;quot;, monospace; line-height: 19px;&quot;&gt;&lt;div style=&quot;&quot;&gt;&lt;span style=&quot;color: rgb(106, 153, 85);&quot;&gt;&lt;font style=&quot;font-size: 18px;&quot;&gt;Node : Every element of a tree. Data is stored in node.&lt;/font&gt;&lt;/span&gt;&lt;/div&gt;&lt;div style=&quot;&quot;&gt;&lt;span style=&quot;color: #6a9955;&quot;&gt;&lt;font size=&quot;3&quot;&gt;&lt;br&gt;&lt;/font&gt;&lt;/span&gt;&lt;/div&gt;&lt;div style=&quot;&quot;&gt;&lt;span style=&quot;color: #6a9955;&quot;&gt;&lt;font size=&quot;3&quot;&gt;Root : Top node. Starting of tree&lt;/font&gt;&lt;/span&gt;&lt;/div&gt;&lt;div style=&quot;&quot;&gt;&lt;span style=&quot;color: #6a9955;&quot;&gt;&lt;font size=&quot;3&quot;&gt;&lt;br&gt;&lt;/font&gt;&lt;/span&gt;&lt;/div&gt;&lt;div style=&quot;&quot;&gt;&lt;span style=&quot;color: #6a9955;&quot;&gt;&lt;font size=&quot;3&quot;&gt;Children : Node connected directly below a node.&lt;/font&gt;&lt;/span&gt;&lt;/div&gt;&lt;div style=&quot;&quot;&gt;&lt;span style=&quot;color: #6a9955;&quot;&gt;&lt;font size=&quot;3&quot;&gt;&lt;br&gt;&lt;/font&gt;&lt;/span&gt;&lt;/div&gt;&lt;div style=&quot;&quot;&gt;&lt;span style=&quot;color: #6a9955;&quot;&gt;&lt;font size=&quot;3&quot;&gt;Parent : Node directly above a node.&lt;/font&gt;&lt;/span&gt;&lt;/div&gt;&lt;div style=&quot;&quot;&gt;&lt;span style=&quot;color: #6a9955;&quot;&gt;&lt;font size=&quot;3&quot;&gt;&lt;br&gt;&lt;/font&gt;&lt;/span&gt;&lt;/div&gt;&lt;div style=&quot;&quot;&gt;&lt;span style=&quot;color: #6a9955;&quot;&gt;&lt;font size=&quot;3&quot;&gt;Siblings : Having same parent&lt;/font&gt;&lt;/span&gt;&lt;/div&gt;&lt;div style=&quot;&quot;&gt;&lt;span style=&quot;color: #6a9955;&quot;&gt;&lt;font size=&quot;3&quot;&gt;&lt;br&gt;&lt;/font&gt;&lt;/span&gt;&lt;/div&gt;&lt;div style=&quot;&quot;&gt;&lt;span style=&quot;color: #6a9955;&quot;&gt;&lt;font size=&quot;3&quot;&gt;Ancestors : Nodes above parent node.&lt;/font&gt;&lt;/span&gt;&lt;/div&gt;&lt;div style=&quot;&quot;&gt;&lt;span style=&quot;color: #6a9955;&quot;&gt;&lt;font size=&quot;3&quot;&gt;&lt;br&gt;&lt;/font&gt;&lt;/span&gt;&lt;/div&gt;&lt;div style=&quot;&quot;&gt;&lt;span style=&quot;color: #6a9955;&quot;&gt;&lt;font size=&quot;3&quot;&gt;Descendent : Nodes below children nodes&lt;/font&gt;&lt;/span&gt;&lt;/div&gt;&lt;div style=&quot;&quot;&gt;&lt;span style=&quot;color: rgb(106, 153, 85);&quot;&gt;&lt;font size=&quot;3&quot;&gt;&lt;br&gt;&lt;/font&gt;&lt;/span&gt;&lt;/div&gt;&lt;div style=&quot;&quot;&gt;&lt;span style=&quot;color: rgb(106, 153, 85);&quot;&gt;&lt;font size=&quot;3&quot;&gt;Leaf : No children. End of tree&lt;/font&gt;&lt;/span&gt;&lt;/div&gt;&lt;/div&gt;" style="text;html=1;align=left;verticalAlign=middle;resizable=0;points=[];autosize=1;strokeColor=none;fillColor=none;fontSize=18;" vertex="1" parent="1">
                    <mxGeometry x="79.99999999999999" y="260" width="570" height="310" as="geometry"/>
                </mxCell>
            </root>
        </mxGraphModel>
    </diagram>
</mxfile>